<svg xmlns="http://www.w3.org/2000/svg" width="158" height="48"><defs><linearGradient id="a" x1="50.016%" x2="50.016%" y1=".012%" y2="99.988%"><stop offset="0%" stop-color="#AAE4FF"/><stop offset="100%" stop-color="#38BDF8"/></linearGradient></defs><g fill="none" fill-rule="nonzero"><path fill="url(#a)" d="m9.246 21.934 4.579-7.675 4.579-7.676 4.578 7.676 4.579 7.675H9.246Zm16.546-9.39L18.309 0l-7.482 12.543-7.483 12.545h29.93l-7.482-12.545Z" transform="translate(0 9)"/><path fill="#0EA5E9" d="M1.909 36.427h10.855l5.466-9.572 5.767 9.572h10.712l1.844 3.072-14.654.007-3.402-5.936-3.847 6.039H0z"/><path fill="#111827" d="M44.126 29.543v-8.301h5.301v.854h-4.364v7.447h-.937Zm7.93-1.719c.62.664 1.4.997 2.34.997.942 0 1.72-.331 2.332-.991.613-.66.92-1.472.92-2.438 0-.956-.311-1.767-.931-2.431-.621-.664-1.402-.996-2.344-.996-.94 0-1.717.33-2.33.99-.613.66-.92 1.473-.92 2.437 0 .957.312 1.768.932 2.432m5.366.599c-.798.842-1.814 1.263-3.048 1.263-1.233 0-2.246-.42-3.036-1.258-.79-.837-1.186-1.85-1.186-3.036 0-1.178.4-2.188 1.199-3.03.798-.842 1.814-1.263 3.047-1.263 1.234 0 2.246.419 3.037 1.257.79.838 1.186 1.85 1.186 3.037 0 1.178-.399 2.187-1.199 3.03m4.117-2.663h2.051c.688 0 1.24-.168 1.655-.504.415-.336.622-.785.622-1.346 0-.577-.199-1.022-.598-1.335-.4-.312-.943-.468-1.631-.468h-2.1v3.654-.001Zm-.937 3.783v-8.301h3.108c.948 0 1.703.237 2.265.711.561.475.841 1.123.841 1.945 0 .862-.31 1.53-.93 2.004-.621.475-1.399.712-2.331.712h-2.017v2.93h-.936Zm7.923 0v-8.301h.937v3.687h4.792v-3.687h.936v8.301h-.936v-3.736H69.46v3.736h-.937Zm16.344.001h.936v-8.302h-.936v8.302Zm-6.393-.854h2.218c.68 0 1.211-.15 1.595-.45.383-.301.576-.74.576-1.318 0-.53-.197-.933-.588-1.21-.391-.276-.939-.414-1.643-.414h-2.159v3.392h.001Zm-.937.854v-8.302h.937v3.213h2.1c.956 0 1.733.202 2.33.606.597.403.895 1.015.895 1.838 0 .814-.278 1.459-.836 1.933-.558.475-1.307.712-2.248.712h-3.178Zm15.193-9.4a1.644 1.644 0 0 1-1.127.41c-.443 0-.818-.137-1.126-.41a1.74 1.74 0 0 1-.57-1.05l.641-.13c.158.554.51.83 1.055.83.546 0 .898-.276 1.056-.83l.64.13a1.737 1.737 0 0 1-.569 1.05Zm-4.578 9.4V21.24h.937v6.891l4.958-6.891h.889v8.302h-.925v-6.89l-4.946 6.89h-.913Zm12.691 0v-8.302h.936v4.957l4.77-4.957h1.208L104.2 24.87l3.713 4.674h-1.175l-3.19-4.021-1.768 1.79v2.231h-.936Zm8.374.095c-.372 0-.733-.067-1.08-.202l.19-.76c.173.08.42.12.735.12.159 0 .301-.025.428-.078.126-.05.276-.193.45-.427.174-.232.317-.553.427-.96.11-.407.208-1.005.29-1.791.084-.787.125-1.718.125-2.794v-1.505h5.373v8.302h-.937v-7.45h-3.535v.902c0 1.123-.045 2.096-.136 2.918-.091.823-.21 1.47-.356 1.94-.147.47-.332.844-.557 1.12-.226.278-.447.457-.664.54-.242.087-.497.13-.753.125m10.888-3.132h3.783l-1.887-4.234-1.896 4.234Zm-2.314 3.037 3.784-8.362h.878l3.783 8.361h-1.008l-.973-2.194h-4.519l-.984 2.194h-.96v.001Zm13.403.143c-1.194 0-2.187-.414-2.977-1.24-.79-.826-1.186-1.845-1.186-3.054 0-1.194.4-2.209 1.198-3.043.799-.834 1.799-1.25 3.002-1.25.694 0 1.288.112 1.778.337.49.225.968.56 1.435 1.002l-.617.664c-.799-.759-1.669-1.138-2.61-1.138-.917 0-1.681.329-2.295.984-.612.657-.918 1.471-.918 2.444 0 .965.308 1.776.925 2.437.617.66 1.38.99 2.288.99.54 0 1.012-.098 1.424-.296.41-.198.83-.498 1.257-.902l.617.653a5.14 5.14 0 0 1-1.471 1.056c-.514.237-1.131.356-1.85.356m7.152-.144v-7.448h-2.786v-.853h6.523v.854h-2.788v7.447h-.95Zm5.49 0v-8.301h6.004v.854h-5.066v2.833h4.532v.855h-4.532v2.905h5.125v.854h-6.062Zm8.885-3.783h2.053c.688 0 1.24-.168 1.654-.504.416-.336.623-.785.623-1.346 0-.577-.2-1.022-.599-1.335-.4-.312-.943-.468-1.63-.468h-2.101v3.654-.001Zm-.937 3.783v-8.301h3.108c.95 0 1.704.237 2.266.711.561.475.841 1.123.841 1.945 0 .862-.31 1.53-.93 2.004-.62.475-1.398.712-2.33.712h-2.017v2.93h-.938Z"/></g></svg>