<svg xmlns="http://www.w3.org/2000/svg" xmlns:xlink="http://www.w3.org/1999/xlink" width="158" height="48"><defs><linearGradient id="a" x1="50%" x2="50%" y1="0%" y2="100%"><stop offset="0%" stop-color="#EFA021"/><stop offset="100%" stop-color="#BE420F"/></linearGradient><linearGradient id="d" x1="0%" x2="101.258%" y1="48.796%" y2="51.405%"><stop offset="0%" stop-color="#EE9F21"/><stop offset="100%" stop-color="#D46C17"/></linearGradient><circle id="b" cx="15.664" cy="15.664" r="15.664"/></defs><g fill="none" fill-rule="evenodd"><circle cx="15.664" cy="15.664" r="15.664" fill="url(#a)" fill-rule="nonzero" transform="translate(0 8)"/><g transform="translate(0 8)"><mask id="c" fill="#fff"><use xlink:href="#b"/></mask><g fill-rule="nonzero" mask="url(#c)"><g fill="#F7B452"><path d="M2.591 17.434c-.02-.041-.02-.062-.04-.102-.042-.062 0-.082.04-.102.041-.02.062-.02.103-.041.082-.041.082-.123.02-.163-.082-.062-.184-.082-.287-.062h-.082c-.247.02-.39-.163-.329-.387.062-.184.041-.388.02-.571 0-.102-.02-.225-.02-.327-.02-.204-.02-.408-.04-.612 0-.081.02-.143.102-.163.103-.04.103-.102.062-.184a1.787 1.787 0 0 1-.103-.306c-.041-.142.061-.265.226-.306.287-.081.595-.102.903-.081h.103c.123 0 .205.04.308.122.02.02.04.041.061.041.062.02.082 0 .082-.061 0-.143 0-.163.144-.163.554-.041 1.129-.062 1.683-.102.267-.02.513-.02.78-.02.206 0 .41 0 .616.02.144 0 .205.081.164.204a3.5 3.5 0 0 1-.143.428c-.062.204-.123.388-.185.592l-.062.306c-.02.122-.102.183-.225.183-.452.02-.904.061-1.355.02-.267-.02-.472-.163-.637-.367-.102-.142-.226-.306-.328-.448-.041-.062-.123-.102-.144-.184 0-.02-.02-.04-.04-.04h-.062c-.021.02 0 .04 0 .06v.02c.164.164.225.409.369.572l.349.408c.103.122.267.143.41.143.329 0 .657 0 .986-.02.246 0 .513-.02.76 0 .307.02.615-.02.903-.062.061 0 .143.02.226.02.082 0 .143.021.225 0 .329-.04.637-.08.965-.06.35 0 .698 0 1.047.02.082 0 .185 0 .267-.02.02 0 .041 0 .062-.02.04-.021.082-.042.082-.103 0-.061-.062-.061-.103-.061-.164 0-.328 0-.493.02-.164 0-.328.02-.492.02-.288.021-.575.021-.883.041h-.328c-.124 0-.226 0-.35.02-.082 0-.102-.02-.143-.101-.02-.04-.062-.082-.082-.143-.02-.04-.062-.082-.062-.122 0-.164.041-.327.103-.47a6.59 6.59 0 0 0 .226-.57c.082-.246.246-.368.513-.307.02 0 .04.02.061 0 .308 0 .616-.02.924-.04.288-.02.575-.02.842-.041.04 0 .102 0 .144-.02.04 0 .082-.062.061-.103 0-.02-.041-.04-.061-.06h-.062c-.39 0-.8.02-1.19.08-.185.021-.37.041-.534 0a.382.382 0 0 1-.144-.04c-.062-.02-.062-.082-.062-.143 0-.02-.02-.082-.02-.082-.041 0-.082 0-.103.02-.061.042-.123.103-.185.144-.143.102-.287.142-.451.102-.041-.02-.103-.041-.144-.082-.082-.061-.082-.163 0-.245.062-.04.103-.102.164-.143.041-.04.062-.04.103 0 .061.082.144.062.164-.04.041-.184.164-.286.308-.368.205-.142.41-.265.636-.407l.493-.306c.103-.062.205-.143.308-.204a.74.74 0 0 1 .37-.143c.04 0 .082 0 .102.06.041.083.103.123.205.123.062 0 .062-.02.042-.06a.226.226 0 0 0-.206-.123c-.082 0-.082-.02-.061-.082a.732.732 0 0 1 1.006-.367c.266.143.554.286.82.428.103.062.206.102.309.164.082.04.082.102 0 .163-.02 0-.02.02-.041.02-.308.082-.616.204-.945.204a.767.767 0 0 1-.41-.143c-.103-.06-.185-.102-.288-.163-.04-.02-.102-.04-.143.02-.021.041.02.123.082.143.082.041.164.062.226.102.04.02.061.02.102.041.062.04.041.102 0 .123-.02 0-.04.02-.061.02-.288.061-.555.122-.842.204-.205.04-.39.081-.575.143a.54.54 0 0 0-.185.102c-.02.02-.02.081-.02.122.04 0 .082.02.102.02.185-.04.35-.102.534-.163.267-.081.534-.143.821-.224l.308-.061c.308-.041.555.06.8.224.145.102.288.245.473.286.041 0 .082.04.123.06.082.042.144.062.226.021.082-.04.082-.122.02-.163l-.123-.061c-.082-.04-.143-.061-.225-.123-.021-.02-.042-.06-.062-.102-.041-.122-.082-.142-.205-.102-.082.041-.165.02-.247-.02-.02-.02-.04-.02-.061-.04-.062-.062-.041-.143.04-.184.227-.061.432-.163.658-.184.287-.02.595 0 .862.123.185.102.39.204.575.305.164.082.349.164.513.266.103.06.205.163.308.244.04.041.04.082.02.123-.061.122-.164.224-.308.224-.266.02-.554.041-.82-.02a1.162 1.162 0 0 1-.247-.082c-.082-.04-.123-.02-.144.082-.02.081-.061.122-.184.143h-.144c-.041 0-.062 0-.082.02-.041.02-.062.061-.082.082 0 .06.04.06.082.06h.205c.103 0 .205-.02.287 0 .247.021.35.164.41.368.021.082.042.143.124.184.103.04.164.142.205.244.041.102.083.204.124.327.04.143-.021.265-.165.285-.061.02-.123 0-.164.02-.082 0-.164.021-.246.021-.123.02-.164-.02-.206-.122-.02-.04-.02-.082.021-.102a.245.245 0 0 0 .02-.306c-.02-.04-.061-.082-.123-.061-.061.02-.082.06-.082.122 0 .04.02.061.02.102.021.061 0 .082-.06.082h-.144c-.083.02-.124.102-.144.183-.02.123-.041.143-.164.163-.041 0-.083.02-.124.02-.061.021-.143-.04-.123-.101 0-.123.041-.225.041-.347.02-.265.02-.53-.02-.796 0-.04-.02-.102-.02-.142-.021-.062-.042-.102-.103-.102-.062 0-.083.06-.103.102 0 .102 0 .183-.02.285 0 .265-.021.551-.021.816 0 .143-.082.245-.205.327-.062.04-.103.06-.165.122-.061.061-.061.122 0 .184.02.04.062.06.103.081.205.102.287.265.287.49v.224c0 .143-.102.245-.246.204-.041 0-.061-.02-.103-.02-.164-.041-.328.081-.307.265v.02c.04.143 0 .204-.165.184-.102-.02-.205-.02-.308-.02h-.061c-.144-.041-.205-.143-.123-.286.061-.082.082-.184.02-.265 0-.02 0-.02-.02-.041-.041-.102-.02-.122.082-.143.082-.02.164-.02.246-.04.02 0 .041 0 .062-.021l.04-.04c0-.021-.02-.042-.04-.042-.165-.02-.267-.122-.35-.244-.04-.062-.04-.102.021-.164a.43.43 0 0 1 .123-.081c.082-.082.062-.163-.04-.204-.144-.061-.185-.123-.185-.265 0-.429-.021-.878-.021-1.306 0-.04-.02-.102-.062-.102-.04 0-.082.04-.102.082-.02.02-.02.081-.02.102 0 .49.02.979.02 1.448 0 .224-.02.449-.041.673 0 .061 0 .123.04.184.062.081.062.163.062.265 0 .04-.02.061-.061.04a.224.224 0 0 0-.226 0c-.062.021-.123.021-.185.042-.04 0-.102.02-.102.081s.02.082.082.102c.102.02.226.02.328.02.041 0 .103-.02.123.041.02.041-.04.102-.102.082-.123 0-.226 0-.35-.02a4.322 4.322 0 0 0-1.026.02c-.43.04-.882.102-1.314.163-.184.02-.349.061-.533.082-.02 0-.062 0-.062-.02-.02-.021 0-.041 0-.062 0-.02.02-.02.02-.04.062-.062.042-.143-.02-.205-.061-.06-.123-.06-.205 0-.062.062-.123.123-.205.184-.226.163-.452.204-.719.102-.082-.04-.164-.02-.267-.02-.061 0-.102.02-.164.02a.636.636 0 0 1-.39-.061c-.041-.02-.082-.02-.123.02-.123.163-.308.184-.493.163-.205-.02-.41 0-.616 0a.382.382 0 0 0-.143.041c-.144.041-.308.061-.432-.04-.082-.041-.123-.123-.143-.205-.02-.102-.082-.122-.164-.04a6.093 6.093 0 0 1-.37.346c-.041.041-.082.062-.082.143.02-.081-.082-.081-.185-.081Zm2.895-3c0 .021-.02.021 0 0-.226.021-.39.103-.514.266-.02.04-.04.102-.02.143.041.143.287.224.431.163.123-.082.226-.184.308-.306.041-.061.02-.122-.02-.163-.083-.04-.144-.061-.185-.102Zm-.924 2.694c.205 0 .349-.102.472-.225.062-.061.062-.102 0-.143-.041-.04-.082-.06-.123-.102-.185-.142-.288-.142-.513-.04-.062.02-.062.081-.041.142.082.123.123.143.266.102h.021c.02 0 .041.02.062.02 0 .021-.02.042-.02.062-.042.02-.104.02-.165.02h-.144c-.02 0-.061.041-.061.062 0 .02.04.06.061.081.062 0 .123 0 .185.02Zm7.164-3.06c-.02.02-.061.02-.082.06-.04.042-.061.103-.082.144-.041.102-.02.183.062.204.123.02.225.081.328.163.02.02.062.02.103.02.102-.04.123-.163.04-.245-.06-.081-.122-.163-.204-.224-.042-.04-.062-.102-.165-.122ZM3.72 15.842c-.061.02-.102.02-.123.041-.062.041-.082.102-.041.163.062.102.103.184.082.306 0 .041.02.102.062.102.061.02.082-.02.102-.06a1.86 1.86 0 0 0 .144-.286c.041-.082.02-.143-.041-.184-.041-.04-.123-.061-.185-.082Zm7.822-2.407c.102 0 .184.02.266 0 .02 0 .041-.02.062-.04-.02-.02-.041-.041-.062-.041h-.061c-.082 0-.164.02-.267.02-.123 0-.226 0-.349-.02-.103-.02-.205-.041-.287-.123-.021-.02-.103-.02-.124 0-.02.02-.02.082 0 .123.02.04.062.081.103.081.103.02.226.02.328.02.144.021.267 0 .39-.02ZM6.06 16.638c0 .082.042.122.083.184.02.02.061.04.082.04.02 0 .061-.04.061-.06v-.225c0-.041-.04-.082-.061-.082-.041 0-.082.041-.123.061-.042.02-.042.062-.042.082Zm-1.231-.449c.02.041.02.082.04.123.021.06.124.06.145.02.02-.04.04-.102.061-.163a.153.153 0 0 0-.103-.143.154.154 0 0 0-.143.102v.061Zm4.578-.143c-.041 0-.083.041-.103.102-.02.082.02.184.062.184.061.02.143-.061.164-.143.02-.04-.041-.143-.123-.143Zm-3.737.898c.02 0 .062 0 .103-.02.02 0 .041-.041.041-.062 0-.02-.02-.06-.04-.06a.263.263 0 0 0-.247 0c-.02.02-.041.04-.041.06 0 .02.04.041.061.062.041.02.082.02.123.02Zm3.244-3.978a.139.139 0 0 0-.123.082c-.02.04 0 .081.04.081.042 0 .083-.02.103-.02.041-.02.083-.04.062-.102 0-.02-.041-.04-.082-.04Zm4.167.224c-.02.041-.04.062-.04.062l.06.06.042-.04c-.02-.02-.041-.04-.062-.082Zm9.792-4.12-.123-.061a.274.274 0 0 1-.123-.286c.02-.061.02-.102.04-.163a.236.236 0 0 0-.04-.204c-.062-.082-.144-.102-.226-.143-.123-.04-.123-.04-.185.061-.02.02-.04.041-.082.041-.02 0-.061-.02-.061-.04 0-.021.02-.082.02-.082.103-.02.123-.082.164-.164v-.02c.123-.122.144-.265.165-.428 0-.02 0-.082-.021-.082-.02-.02-.062 0-.082.02-.062.041-.123.02-.123-.06v-.103c0-.081-.062-.122-.144-.081-.041.02-.082.04-.123.04-.164.082-.35-.06-.35-.244v-.225c0-.081 0-.163.042-.245.02-.081.02-.102-.062-.122-.082-.02-.143-.04-.225-.04a36.6 36.6 0 0 0-.514-.062c-.061 0-.123-.02-.143-.102h-.35c-.06.184-.205.326-.348.449-.02.02-.062.04-.103.02-.02 0-.041-.061-.041-.081 0-.062.02-.123.041-.164a.216.216 0 0 0 .02-.244h-.102c-.02.06-.041.142-.082.204-.041.081-.123.102-.205.04l-.042-.04c-.04-.041-.102-.041-.164-.02-.02.02-.04.02-.082.04-.123.061-.267.122-.328.286-.02.06-.041.122-.041.183-.02.061-.02.143-.103.143-.082.02-.144.02-.226.02-.02 0-.04-.02-.061-.04-.041-.041-.062-.102-.103-.143a.528.528 0 0 1-.144-.225c-.02-.04-.061-.081-.102-.06-.062.02-.062.06-.041.101.04.102.04.204.123.286.061.061.02.163-.062.163-.04 0-.082-.04-.123-.061-.041-.02-.082-.061-.123-.061-.062-.02-.144.04-.164.102.04.081.102.081.143.122.062.04.144.082.206.143.04.04.082.081.061.143-.02.06-.061.081-.123.102-.123.02-.144.081-.103.183.02.102.062.184.082.286.021.143 0 .265-.123.367a.374.374 0 0 1-.287.122c-.02 0-.062.02-.062.041 0 .02.02.061.02.082.042.04.083.061.103.102.185.183.185.387-.02.57-.082.062-.062.123.02.164.062.04.103.102.083.163-.021.102.02.164.102.225a.428.428 0 0 1 .164.224c.083.245.226.449.39.633.103.122.247.204.39.306.103.06.185.142.165.265 0 .04 0 .081.061.102.062 0 .082-.02.103-.061.02-.062.062-.123.082-.204.062-.102.144-.123.246-.062.062.062.124.123.185.164.041.02.062.06.103.081.061.04.123.04.205-.04a.27.27 0 0 1 .267-.082c.062.02.144.02.205 0l.493-.123c.103-.02.123-.02.164.062.02.06.082.081.123.06.062-.02.082-.06.062-.122-.02-.081.02-.142.082-.204.041-.04.082-.102.123-.163.103-.143.205-.224.39-.245.041 0 .103-.04.144-.081.082-.082.082-.184.082-.286 0-.04.02-.081.041-.081.02 0 .082.02.103.04.061.041.061.123.061.184 0 .02.02.061.041.082.02-.02.062-.02.082-.041.144-.204.247-.408.226-.673-.02-.225.062-.388.267-.49.082-.061.082-.122 0-.163Zm-2.155-2.53c.061 0 .102.061.102.143 0 .082-.02.102-.102.102-.062 0-.103-.04-.103-.143 0-.081.02-.102.103-.102Zm-1.499.245c.041-.061.226-.02.246.04.021.082-.04.144-.164.144-.04 0-.102-.041-.123-.082.02-.02.02-.061.041-.102Zm2.628 2.448a.803.803 0 0 0-.206.163c-.184.184-.164.388-.102.612.02.082.04.163.04.245 0 .102-.081.204-.204.224h-.083c-.123 0-.184.041-.225.143a.494.494 0 0 1-.431.306h-.411v.02h-.472c-.164 0-.288-.081-.41-.183-.083-.082-.165-.082-.268-.04-.082.04-.164.06-.225.101a.2.2 0 0 1-.185-.02c-.062-.041-.062-.082-.02-.143.102-.122.102-.245-.021-.367a1.127 1.127 0 0 0-.185-.143.624.624 0 0 1-.328-.428c-.02-.062-.02-.143-.041-.225-.021-.122-.042-.224-.042-.347v-.367c.042-.265.185-.51.308-.734.083-.123.144-.245.247-.367.205-.225.472-.327.76-.388.184-.04.369-.082.533-.102a1.51 1.51 0 0 1 .74 0c.328.082.594.286.8.53.123.143.225.286.328.429a.732.732 0 0 1 .123.408v.265c0 .061.02.143.02.204.083.102.062.143-.04.204Z"/><path d="M5.178 10.702c-.02.143-.02.306-.041.449v.183c0 .143.123.225.267.143.082-.04.143-.102.225-.143l.431-.245c.021-.02.083-.02.103 0 .02 0 .062.041.062.062 0 .02-.02.06-.041.081-.02.02-.062.04-.082.061-.062.062-.062.143 0 .204.04.02.061.041.102.082.041.04.02.082-.02.082-.185.04-.247.183-.329.326-.02.061 0 .122.062.163.061.04.102.02.143-.02.144-.102.267-.225.432-.327.184-.122.37-.224.554-.326.144-.082.287-.143.43-.204.021 0 .042-.04.042-.061 0-.02-.041-.041-.062-.041-.061 0-.102.02-.164.02l-.308.123h-.02c-.041 0-.103.02-.123-.02 0-.021.04-.062.061-.082.062-.041.082-.102.062-.163a.376.376 0 0 1-.041-.143.397.397 0 0 1 .205-.408c.37-.245.78-.408 1.232-.45.328-.04.657.042.964.205a.16.16 0 0 1 .083.082c.061.122.164.163.287.142.144-.02.246.02.349.123.062.06.123.122.164.183.062.102.144.164.267.164.041 0 .082.02.103.06.02.021.02.082 0 .103a.92.92 0 0 1-.452.265c-.041.02-.082.02-.123.02-.123.041-.267 0-.37-.06-.225-.082-.472-.184-.698-.266a.964.964 0 0 0-.349-.061c-.184 0-.39 0-.574.02-.103.02-.185.061-.288.102-.02 0-.02.02-.02.04 0 .021.02.021.04.021h.165c.39-.06.76-.02 1.15.082.143.04.266.082.41.122.062.02.123.041.164.082.103.061.124.184.02.286l-.245.183-.493.306c-.144.082-.267.184-.41.265-.042.02-.103.02-.144.041-.103.02-.185.04-.247.122-.082.123-.184.225-.287.327-.041.04-.082.061-.123.081a.477.477 0 0 0-.206.245c-.082.123-.184.245-.328.286-.144.04-.287.061-.431.061-.205-.02-.39-.02-.575 0-.267.02-.534.02-.8.04-.288.021-.555.021-.842.042a.382.382 0 0 0-.144.04c-.123.041-.205 0-.246-.102-.041-.081-.103-.102-.185-.04-.062.04-.123.102-.185.142-.102.082-.226.102-.349.123-.267 0-.513 0-.78.02-.04 0-.082.02-.123.02h-.082c-.02 0-.041-.02-.041-.04s.02-.04.02-.061c.185-.123.35-.266.534-.388a.761.761 0 0 1 .226-.102c.185-.04.328-.122.493-.224.082-.062.164-.102.246-.143.082-.061.082-.102.02-.184-.061-.06-.082-.102 0-.163a6.42 6.42 0 0 1 .432-.347c.04-.04.102-.04.143.02.02.021.041.062.062.082.04.041.061.082.103.102.02.02.061.02.082 0 .02 0 .02-.04.02-.06-.061-.184-.02-.348.041-.51.041-.144.103-.307.144-.45.02-.04 0-.102 0-.163 0-.204-.02-.387-.02-.591 0-.041.02-.082.04-.123.042-.102.103-.122.206-.102.082.02.123.061.123.163-.123-.04-.123 0-.123.02Zm.184 1.57c-.04.02-.102.02-.102.041-.041.082-.123.102-.205.143 0 0-.021 0-.021.02-.062.062-.123.143-.185.204-.02.041-.02.062 0 .102.02.041.041.082.082.102.02.02.062.082.103.062.041 0 .082-.041.103-.082.02-.02.02-.082.02-.122.02-.102.02-.184.041-.286 0-.02.041-.04.062-.04.102-.041.102-.041.102-.143.103 0 .206-.02.288-.082a.155.155 0 0 0 .04-.102c0-.02-.04-.04-.06-.061-.042-.02-.083-.02-.124-.041a.244.244 0 0 0-.205.02c-.082.041-.082.102-.02.164.04.04.061.081.081.102ZM8.011 10.6l.123-.061c.061-.041.082-.102.04-.164-.02-.06-.102-.102-.163-.081-.103.02-.206.04-.288.06-.02 0-.04.042-.04.062 0 .02.02.061.04.082.082.04.185.06.288.102Zm-3.223 2.203c-.02 0-.041-.02-.062-.04-.04 0-.103.06-.103.101 0 .02.042.04.042.04.082.042.123-.02.123-.101Zm10.346 2.754c0 .04 0 .081.02.122.021.123-.02.184-.123.204-.246.061-.37.225-.513.408a.482.482 0 0 0-.061.245c-.021.122-.124.286-.247.326h-.102c-.124-.02-.247-.04-.35-.06-.061 0-.082-.042-.102-.082a19.144 19.144 0 0 1-.123-.51 6.197 6.197 0 0 0-.144-.592c0-.04-.041-.061-.062-.102-.02-.061 0-.102.062-.122.103-.02.205-.02.308-.041.164-.02.267.061.308.224 0 .041.041.082.062.082.04 0 .082-.02.102-.04a.95.95 0 0 1 .37-.266.686.686 0 0 1 .492-.02c.103.06.103.081.103.224Zm-.8-1.918c.102.02.184.041.287.041h.123c.041 0 .082-.02.123-.02.103-.02.185.04.185.163 0 .061-.02.143-.02.204 0 .163.02.347.02.51v.428c0 .102-.062.163-.185.163-.061 0-.103 0-.164.02a.261.261 0 0 1-.246-.142c-.083-.143-.165-.286-.226-.428-.103-.204-.206-.429-.308-.633v-.02c-.082-.123 0-.225.123-.245.062-.02.103-.02.164-.02.02 0 .062 0 .123-.02Zm-.083.45c0 .101.041.183.103.244.041.04.082.061.144.02.04-.04.061-.102.02-.143-.04-.06-.082-.102-.123-.163-.02-.02-.062-.04-.082-.02-.041 0-.062.04-.062.061Zm-1.375 1.325c.061 0 .103.04.061.102l-.061.122a.897.897 0 0 0-.02.612c.04.164.102.306.164.47.02.081 0 .102-.062.142-.041.02-.103.041-.144.082-.061.102-.184.102-.246-.02-.082-.143-.103-.306-.123-.45 0-.244-.02-.468 0-.713 0-.163.123-.265.287-.286.062-.04.103-.06.144-.06Zm-5.132-1.02c-.02.04-.02.102-.041.143a1.737 1.737 0 0 1-.35.51c-.04.04-.06.061-.102.081-.061.062-.061.102-.02.164.04.04.061.06.082.102.04.04.02.102-.02.122-.021.02-.062.02-.083.04-.082.021-.144.021-.226.042-.061.02-.123-.02-.102-.082.061-.224.102-.428.164-.653.02-.081.061-.143.082-.224.062-.163.205-.225.349-.286.041-.02.103-.04.144-.06.082-.021.123 0 .123.101Zm9.69-6.793c.041.02.103.042.144.062.02.021.02.063.02.084-.04.041-.082.104-.144.145-.02.021-.04.021-.061 0-.042 0-.104-.145-.104-.208 0-.02.062-.062.145-.083Zm-.247 1.877c0-.102.042-.204.042-.306 0-.02.041-.041.083-.041s.083.02.125.02v.02c.042.123.083.246.042.368-.042.04-.084.082-.167.061-.042 0-.083-.04-.125-.081v-.041Zm4.88-2.489c0 .122-.1.184-.226.163-.075-.02-.1-.061-.075-.122l.15-.184c.05-.04.1-.02.125.02 0 .021 0 .041.025.062v.061Zm1.3 2.596s-.024.042-.047.042h-.072c-.071-.084-.119-.146-.19-.23 0-.02 0-.04.024-.062 0-.02.047-.02.071 0 .071-.02.214.167.214.25Zm-1.48 2.198c.021.051.083.051.124.102.02 0 .02.103.02.103 0 .05-.02.05-.04.05-.062.052-.124.052-.185.052h-.062c-.02-.051-.061-.102-.061-.154 0-.05.04-.153.061-.153h.144Zm.91-4.375c0 .082-.072.137-.12.082-.074-.055-.122-.11-.17-.164-.025-.028-.025-.082 0-.082.024-.028.072-.055.096-.028.073.028.122.11.194.192 0-.027 0 0 0 0Zm-5.902.515c-.072 0-.238-.15-.262-.21-.023-.06.024-.119.072-.09.07.03.142.12.213.18.024 0 .024.06 0 .09.024.03 0 .03-.023.03Zm1.06.323v.053c-.035.08-.107.133-.215.107-.108-.027-.108-.08-.072-.16 0-.027 0-.027.036-.053.036-.054.072-.107.144-.08.036.026.072.08.108.133Zm1.6 4.068s-.055 0-.082-.043a.466.466 0 0 0-.11-.132.466.466 0 0 1 .11-.132h.082c.055 0 .137.044.11.176.027.131-.028.131-.11.131Z"/></g><g fill="#7C2517"><path d="M27.02 9.62c.205.06.431.122.637.204.102.04.225.081.307.143.042.04.083.163.062.224-.02.061-.123.082-.185.102-.246.061-.492.082-.718.163-.267.082-.329.225-.226.47.103.285.246.55.349.836.123.326.226.673.328 1 0 .02.021.06 0 .101-.164.571.041 1.081.226 1.591.062.184.082.368-.082.51-.103.123-.103.245.02.347.124.123.226.245.35.347.164.122.246.082.287-.122v-.02c0-.51.02-1 0-1.51 0-.225-.123-.45-.164-.694-.062-.347.123-.51.451-.408.124.04.185.102.124.245-.124.347-.062.693.04 1.02.062.224.083.47.042.693-.062.551.061 1.061.246 1.55.041.144.205.246.329.348.225.163.472.306.697.469.042.04.062.122.083.183-.062 0-.144.02-.206-.02-.164-.102-.308-.224-.472-.306-.04-.02-.123-.02-.185-.02 0 .06 0 .102.02.163.042.204.124.408.145.612.04.55.164 1.06.43 1.55.247.47.658.714 1.191.673.041 0 .103 0 .144-.04.205-.225.493-.204.76-.266a2.08 2.08 0 0 0 .677-.326c.39-.306.78-.653 1.15-.98.164.184.164 1.857.04 1.98-.205-.02-.369-.062-.533-.041-.472.04-.883.204-1.232.51-.267.224-.554.326-.903.367-.287.04-.554.122-.842.163a3.58 3.58 0 0 1-.657.061.592.592 0 0 1-.37-.142c-.41-.49-.943-.612-1.498-.51-.595.081-1.17.265-1.765.408-.287.081-.513.02-.74-.143-.41-.306-.677-.306-1.128-.041-.185.122-.37.265-.575.388-.287.183-.575.244-.883.102a.156.156 0 0 0-.082-.041c-.205.02-.43-.02-.575.061-.205.122-.02.326.041.51.021.02 0 .061.021.122-.246.041-.431-.04-.616-.183-.205-.184-.43-.245-.698-.245-.657-.02-1.293-.02-1.95-.082-.37-.02-.698.041-1.006.286a3.36 3.36 0 0 1-.821.49c-.164.081-.37.081-.554.06a1.034 1.034 0 0 0-.842.164c-.287.204-.513.204-.739-.02-.349-.368-.76-.286-1.19-.204-.33.06-.658.122-.986.122-.636 0-1.252.102-1.704.612-.04.04-.102.082-.164.122-.8.429-1.601.837-2.402 1.265-.164.082-.37.143-.554.184-.575.183-1.15.347-1.704.55-.267.103-.349.266-.226.51.103.204.041.286-.164.347-.02-.04-.062-.102-.103-.183-.308.163-.595.06-.903-.082-.493-.224-.965-.122-1.416.122a1.18 1.18 0 0 1-.74.184c-.184-.02-.39.04-.574.082-.247.06-.513.122-.76.204-.04.02-.082.06-.123.081h-.205v-.49c.451-.163.903-.326 1.334-.53.308-.142.575-.306.862-.49.144-.101.185-.244.103-.407-.164-.327-.103-.653-.02-1 .061-.285.061-.571.061-.877 0-.918-.205-1.795-.349-2.693-.041-.183.02-.387.103-.571.184-.388.472-.428.82-.204.227.143.452.286.678.408.02.02.062 0 .123 0 0-.102-.02-.184-.02-.265-.02-.347-.041-.694-.041-1.04 0-.082.082-.143.123-.205.02-.02.123.02.123.041.02.082.02.163 0 .225a.623.623 0 0 0 .041.57c.062.123.144.246.206.348.41.57.656.591 1.313.306.103-.041.226-.225.226-.368.02-.428 0-.877.02-1.326.021-.265.124-.51.185-.775 0-.02.062-.061.042-.081-.103-.327.205-.347.348-.45.144-.122.452.144.39.327-.205.47-.102.877.165 1.285 0 .02 0 .041-.062.082-.164-.245-.328-.49-.493-.755-.164.102-.205.245-.164.408.041.123.103.245.144.367.041.143.103.286.082.429-.062.347-.103.693-.226 1.02-.102.285-.308.53-.513.755-.226.244-.287.387-.041.612.349.326.718.612 1.109.897.205.143.43.265.554.51.02.04.102.061.164.102.02-.081.082-.183.062-.224-.35-.551-.39-1.204-.657-1.755-.226-.49-.247-.958-.226-1.448v-.102c.04-.061.082-.143.123-.163.041 0 .144.061.164.102.103.285.247.571.288.857.102.775.554 1.264 1.231 1.59.308.144.308.144.206.45a4.982 4.982 0 0 0-.165.591c-.04.184.144.571.308.653.041.02.124 0 .185-.02.431-.204.842-.408 1.252-.592a.555.555 0 0 0 .35-.388c.164-.49.369-.979.533-1.468.103-.286.144-.592.205-.898.041-.306.082-.592.082-.898a.966.966 0 0 0-.143-.469c-.02-.04-.185-.081-.247-.061-.39.204-.78.408-1.129.653-.37.265-.739.408-1.19.347-.185-.02-.37-.02-.534-.062a1.667 1.667 0 0 1-.452-.142c0-.02.02-.062.02-.082.083.02.165.04.268.061.718.163 1.375.102 1.991-.367.328-.245.698-.449 1.067-.673.165-.102.185-.184.103-.367a3.16 3.16 0 0 1-.205-.755c-.041-.286.123-.388.39-.265.287.122.595.204.78.469.02.04.103.02.164.04 0-.06.02-.101 0-.163-.082-.224-.185-.428-.267-.652-.143-.327-.164-.633 0-.98.02-.06-.02-.163-.02-.244 0-.102-.02-.225.04-.306.042-.062.186-.082.268-.123.04.102.123.225.102.306-.102.225 0 .408.062.633.123.346.164.714.267 1.06.04.102.143.245.246.266.082.02.226-.102.288-.204.102-.164.184-.347.246-.53.103-.266.677-.674.944-.654.226 0 .41.204.41.45 0 .122-.02.224-.02.346 0 .326.185.49.513.408.37-.102.719-.245 1.047-.408.37-.204.452-.592.493-1 .02-.326.062-.652.103-.979.02-.224.164-.306.37-.285.184 0 .369-.02.574 0a.57.57 0 0 1 .328.102c.144.102.185.244 0 .367-.184.163-.184.204.042.306.123.061.246.081.369.122.349.082.698.163 1.067.225.432.081.616 0 .801-.408.185-.408.35-.816.534-1.224.02-.041.04-.062.061-.102.02 0 .041.02.083.02-.042.163-.042.326-.124.49-.143.346-.328.693-.492 1.04-.103.245-.308.347-.555.388-.43.04-.841 0-1.231-.164-.247-.081-.472-.183-.719-.265-.349-.122-.43-.04-.472.306-.02.388-.041.775-.164 1.122-.144.47-.472.796-.883 1.061a.612.612 0 0 0-.246.265c-.123.265-.267.347-.554.265-.308-.081-.329-.04-.267.266.082.387.37.591.657.795.246.184.513.306.78.47.287.183.595.387.862.591a.846.846 0 0 1 .246.408c.144.388.267.51.678.49.677-.02 1.334.04 1.97.265.041.02.103.02.206.04-.267-.407-.041-.775.02-1.121.082-.47.144-.96.041-1.428-.02-.102.02-.245.062-.347.267-.53.41-1.061.102-1.632-.04-.061 0-.184.02-.265.083-.368.186-.735.247-1.122.02-.082-.061-.184-.123-.245-.267-.184-.287-.429-.226-.714.062-.265.144-.53.206-.816.02-.061.02-.184-.02-.204-.186-.143-.083-.265 0-.388.143-.224.122-.326-.104-.449-.43-.265-.43-.51-.061-.836a.59.59 0 0 0 .185-.306c.102-.367.37-.55.698-.653.595-.183 1.15-.02 1.54.47.102.122.204.224.287.326.123.163.061.306-.144.326-.103.02-.185.02-.35.02.083.103.124.184.186.225.123.102.246.204.37.286.163.102.225.244.287.428.102.245.246.49.43.694.185.183.432.306.658.428.205.122.328.04.39-.204.061-.326.123-.673.164-1 .02-.081-.041-.183-.062-.285-.205-.796-.43-1.612-.636-2.407-.062-.225.061-.388.246-.53.062-.041.123-.103.185-.143.246-.041.39-.041.513-.041ZM8.257 23.349a.882.882 0 0 0-.143-.327c-.37-.428-.698-.897-1.232-1.142a.581.581 0 0 1-.205-.184c-.308-.51-.822-.673-1.355-.775-.185-.04-.329.041-.37.225-.061.367-.287.591-.595.775-.123.081-.246.204-.288.347-.164.55-.307 1.122-.451 1.672-.062.286.123.633.41.694.473.102.842.347 1.191.673.205.204.349.184.493-.061.143-.204.349-.306.554-.408.554-.265 1.088-.53 1.622-.816.246-.143.349-.367.37-.673Zm8.602-1.081c.082-.02.184-.041.225-.102.042-.062 0-.184-.04-.245a13.937 13.937 0 0 0-.842-1.081c-.35-.408-.698-.837-.883-1.347-.082-.204-.226-.265-.431-.224-.329.081-.657.143-.985.224-.35.102-.678.306-.842.653-.35.673-.678 1.387-1.006 2.08a.224.224 0 0 0 0 .164c.02.02.123.04.144.02.267-.163.513-.122.8-.06.165.04.37 0 .555-.042.205-.04.41-.122.615-.204.35-.122.432-.102.678.164.287.306.513.326.8 0 .185-.204.37-.245.616-.164.226.062.39.123.596.164Zm10.839-2.244c.472 0 .472-.062.451-.408 0-.123.02-.245.041-.368.02-.244.041-.469.041-.714 0-.081-.082-.224-.143-.244-.267-.143-.267-.327-.206-.572.103-.408.185-.816.267-1.224.062-.326-.082-.591-.287-.816-.103-.102-.185-.122-.308-.02-.287.265-.657.265-.985.02-.062-.04-.103-.102-.165-.102-.246.02-.39-.142-.533-.285-.083-.061-.185-.102-.288-.143-.04.102-.102.204-.102.306-.062.55-.083 1.102-.165 1.652-.04.286.02.49.226.694.205.184.39.408.493.653.123.245.267.428.492.591.206.164.411.368.575.592.144.286.329.408.596.388Zm-4.25-4.61a1.23 1.23 0 0 0-.308.856 5.394 5.394 0 0 1-.533 2.264.562.562 0 0 0-.062.266c-.02.49-.062.979-.062 1.468 0 .164.062.347.144.51.041.082.164.204.246.204.329.02.657 0 .904-.224.41-.388.718-.857.78-1.428.04-.367.061-.734.082-1.102.02-.306-.082-.55-.37-.673-.143-.061-.164-.143-.123-.285.041-.123.082-.286.041-.368-.226-.51-.492-.979-.739-1.489Zm-6.897 3.814c-.02.02-.02.04-.041.061.061.265.164.53.205.816.082.653.349 1.224.718 1.775.124.184.226.184.37.02.185-.204.39-.408.595-.57.082-.062.206-.042.329-.062.061 0 .143.02.164-.02a.28.28 0 0 0 0-.184c-.041-.082-.082-.184-.164-.245-.329-.306-.637-.612-.986-.877-.39-.265-.8-.47-1.19-.714Zm8.375-.55h.02c-.02.203-.04.428-.081.632-.062.306-.144.612-.226.918-.041.163 0 .326.144.367.102.04.246 0 .349-.082a.646.646 0 0 1 .656-.122c.144.04.329.061.473.02.143-.02.37-.102.39-.204.04-.122-.082-.306-.165-.449-.04-.06-.143-.102-.205-.142-.061-.041-.144-.082-.185-.143-.205-.367-.39-.735-.615-1.081-.103-.164-.247-.286-.411-.408-.123-.102-.226-.02-.226.142.041.184.062.368.082.551Zm-.02-1.816c-.02-.082-.02-.143-.02-.184 0-.571-.021-1.142-.021-1.714 0-.102-.062-.224-.082-.326-.124.04-.247.04-.35.102-.164.102-.287.224-.451.326-.123.082-.103.184-.041.306.144.306.287.633.431.96.103.203.205.387.328.57.021.041.103.082.165.082 0 0 .02-.102.04-.122Zm4.865 3.223c.02-.02.02-.061.041-.082-.452-.204-.636-.591-.8-1-.021-.04-.083-.081-.103-.081-.062.02-.123.082-.123.122-.02.225-.041.429-.02.653.02.347.081.367.41.388.102 0 .184.04.287.04.103.021.205-.02.308-.04ZM8.914 22.818c-.04.082-.082.123-.102.184-.083.245.246.714.513.734.061 0 .143-.04.184-.081.021-.02 0-.123-.02-.163a6.152 6.152 0 0 0-.452-.572c-.02-.06-.061-.06-.123-.102ZM8.34 23.92c.185.04.35.04.431-.143.021-.04-.102-.204-.164-.204-.205-.02-.226.163-.267.347Z"/><path d="m8.073 18.453.492.612c-.02.02-.04.02-.061.04-.247-.142-.37-.367-.493-.611.041 0 .062-.02.062-.041Z"/></g></g></g><path fill="url(#d)" fill-rule="nonzero" d="m50.397 9.132-.024.34v.386l-.14.258.047.199-.093.328-.269.34-.21.315-.105.69v.434l-.116.597.023.316-.117.527-.023.48-.222.433-.093.55-.047.55-.711 1.51-.245.188-.07.363-.21.34-.105.55-.117.327v.457l-.28.75-.198.35-.07.562-.047.445-.117.433.024.363-.07.387.046.21-.198.246-.21.48h-.187l-.245-.047-.093-.34-.455-.245-.163-.421-.105-.363-.257-.433v-.293l-.245-.281.222-.433-.245-.433-.07-.644-.35-.773-.129-.667-.116-.527-.164-.843-.093-.28-.128-.41-.187-.504-.338-1.007-.385-.573-.257.48-.093.187v1.346l-.094.644.07.597-.128.702-.117.738-.186.363-.094.597-.105.714-.046 1.37-.164.34.094.304-.257.34-.432.186-.548.024-.432-.258-.116-.433-.175-.527-.117-.48v-.386l.315-.48.21-.21.187-.247.221-.503.024-.644.233-.55.082-.503.21-.387-.094-1.124-.116-.363-.082-.643.128-.644.164-.433.14-.55.361-.34.164-1.417.338-.433.093-.48.339-.421.116-.129.164-.117.058-.293.14-.093h.21l.152.175.07.351.14.574.116.679.175 1.58.094.715.163.433.07.456.047.433.175.644.07.726.303.48.175.714.047.68.163.573.175.667.117.433.093.234h.187l.151-.234.28-.246.094-.503.175-.117-.047-.234.163-.574-.07-.386.07-.48.21-.222.222-.352.187-.433.245-.433.233-.27v-.444l.222-.433.116-.293.164-.527.093-.433-.047-.69-.163-.527-.187-.55-.198-.41v-.48l-.047-.62.245-.27v-.34l.187-.234.117-.749.175-.445.186.094.409-.152.233-.281.432-.176.291-.094.257.2.152.35.14-.023.07.433Zm10.215 9.226-.178 1.084-.438 1.107-.308.646-.296.392-.39.473-.45.45-.546.288-.793.23-.853.127-.817-.104-.735-.138-.58-.311-1.09-.635-.627-.588-.32-.334-.415-.496-.26-.634-.178-.635-.095-.668.095-.496-.118-.635-.142-.472.165-.566v-.288l.166-.184v-.45l.154-.288.26-.3.178-.611.332-.554.367-.392.26-.45.32-.046.368-.288.26-.116.344-.161.343-.265.38-.139.366-.357.344-.404.118-.115.296-.138.462.092.427.277.367.403.142.611-.071.427-.462.45-.604.265-.817.046-.533.704-.344.715-.39.519-.344.9-.095.887-.19.807.332.83.107.796.438.496.427.946.32.07.165.172.391.092.533.07.628-.162.616-.196.379-.3.023-.83.273-.162-.024-.668.166-.439.071-.473.154-.403-.095-.404-.059-.61-.237-.428-.32-.219-.237-.473-.414-.542.07-.45.143-.391.272-.173h.391l.51.311.485.254.237.45.32.288.095.473.19.472.153.38.26.37.072.623.13.588Zm12.259 7.304-.046.115-.147.102-.158-.308-.16-.605-.146-.263v-.16l-.046-.913-.272-.868-.09-.936-.17-.629-.204-.913-.068-.674-.215-.377-.181-.696v-.571l-.16-.468.024-.96-.17-.32-.068-.513-.023-.73.09-.72.148-.4-.147-.445-.068-.469-.023-.536-.283-.229-.25-.102-.305.308-.34.468-.306.583-.26.673-.227.754-.204.628-.193.64-.204.627-.17.354-.18.183-.205.114-.305-.137-.204-.33-.352-.538-.192-.49-.25-1.12-.09-.513-.147-.629-.227-.57-.136-.514-.192-.423-.227-.137-.283-.137-.136.308-.181.514-.216.628-.18 1.336-.148.765v.286l-.113 1.028-.227 1.233-.023.662.204.229.023.49.113.423-.226.377-.26.377-.443.068h-.43l-.544.023-.362-.16-.261-.194-.136-.445.136-.96.26-.49.205-.092.045-1.165.396-1.381.068-.56.283-.514-.022-.33.317-.515v-.33l.657-1.61.09-.332.205-.16.068-.422.305-.4.397-.582.351-.206h.295l.192.228.204.423.136.537.397 1.358.113.537.192.628.091.491.09.685.069.56.17.537.294.376.17.137.181-.217.114-.388.215-.445.25-.754.282-.674.159-.513.158-.377-.158-.183-.136-.377.023-.468.203-.49.238-.47.091-.444.306-.537.226-.24.306-.411.42-.263.249-.16.374.092.373.045.386.229.305.285.26.354.069.491.023.583-.023.536-.023.674.046 1.268v.73l.203 1.28-.022.627-.045.845-.023.686v.628l-.068.765-.136.308.136.605v1.245l.136.251.022.845.091.685.147 1.256.046.56v.936Zm13.62-1.157-.093.113-.188.068-.07-.113-.13-.17-.164-.32-.234-.306-.34-.58-.247-.558-.094-.398-.164-.216-.293-.807-.235-.285-.187-.42-.27-.421-.211-.182-.505-.535-.105-.307-.399-.273-.504-.09-.54.067-.551.091-.399.16-.434.375-.41.205-.094.193-.317.227-.669.376-.129.136-.093.512v.33l-.165.182v.398l-.07.42.07.683-.07.466-.14.49-.224.386-.258.307-.434.376-.41.068-.387.045-.118-.09h-.222l-.165-.194-.117-.091v-.228l-.117-.17v-.466l.117-.296-.023-.262.07-.159.14-.068v-.216l.224-.114.093-.205.141-.284.2-.091.187-.42.07-.467.118-.068-.047-.307.094-.467v-.295l-.211-.444-.141-.398-.047-.444-.023-.307.07-.09-.047-.16v-.091l.352-.42v-.137l.2-.216.257-.398.317-.444.07-.318.024-.24-.024-.181.118-.58.094-.558.199-.705.047-.398.094-.182-.024-.603-.047-.534.047-.512.188-.42.176-.33.211-.16.07-.307.153-.205.07-.193-.07-.136.047-.307-.176-.364.047-.376-.141-.17.07-.296h.153l.258-.193.14-.023.106-.182.376-.046.316.137.27.398.117.068.188.353.223.42.094.399.21.455.27.352.024.194.188.204.117.24.223.295-.024.284.212.42.023.183.13.227.116.398.188.33.07.558.106.398.14.557v.205l.118.307.164.534.153.49.047.397.117.285.317.204.375.114.457-.023h.434l.434.091.07.125.095.114-.094.068-.07.114-.188.194-.247.022-.093.114-.364.068-.41.182-.165.148v.273l.07.33.153.33.188.318.164.466.117.285.153.443.164.398.246.49.164.409.094.637.118.068.152.33.164.318v.194l.118.113.093.308Zm-4.767-7.201-.115-.254-.255-.426-.05-.403-.128-.185-.09-.242-.153-.23.026-.61-.332-.404.102-.173-.127-.276-.166-.83-.204-.38-.026-.3-.293-.334-.102-.184-.255-.495-.523.472.051.3-.191.264v.277l-.051.15-.102.472-.051.415v.127l-.128.161v.334l-.05.657v.31l-.141.277.09.288-.141.358.217.276.6.242.624.207.523.265.293.185.51.092.345-.07.102-.068.191-.265Zm-1.186.53-.096.025-.08-.056.016-.064h.08l.048-.032.032.048v.08Zm14.807-2.533-.12.494-.049.655-.156.632.072.47.048.69-.144.46v.643l-.288.54-.229.54-.89 1.39-.409.321-.54.356-.542.195-1.142.138-.637-.069-.518.07-.324.022-.24-.092-.121-.092-.132-.172.132-.321.289-.334.372-.114.217.068.445-.333.42-.16.446-.046.372-.288.421-.16.385-.219.42-.47.35-.54.336-.449.18-.448-.072-.517.097-.47-.097-.391-.084-.402.157-.471-.049-.356.12-.471-.047-.563-.12-.54-.181-.735-.216-.678-.205-.31-.048-.39-.264-.449-.373-.333-.421-.207-.902.046-.553.161-.265.333-.096.517-.18.471-.145.61-.12.539-.096.632-.108.379-.072.31.072.448.108.414-.252.218.12.253-.096.333v.448l-.145.356-.024.517v.379l-.12.367-.108.288v.356l-.072.425-.169.586v.298l-.024.758-.024.357.024.344.096.448.169.218-.024.276-.145.31-.216.046-.228-.046-.169-.092-.096-.126-.12-.253-.109-.609-.024-.47.024-.494-.024-.494v-.357l.097-.631.06-.644.12-.563.048-.448.096-.47v-.632l.048-.724.097-.643-.097-.345-.048-.551.072-.701.18-.563v-.448l.17-.827v-.448l-.097-.345.024-.31-.204-.23-.097-.31-.048-.264.072-.448.229-.207.541-.183.517-.242.565-.16.541-.024h.373l.926.184.42.046.326.173.072.16.372.07.361.31.325.252.252.494.217.38.144.447.18.333.169.471.216.563.084.448.049.54.12.448v.448Zm4.767-6.398-.065.412-.12.353-.132.365.022.27-.022.213-.426.8-.284.33-.186.271-.196.236-.23.106-.087-.248.022-.282.23-.342.218-.365.23-.436.13-.388-.065-.33-.088-.07-.207.07-.426.024-.153-.224-.153-.141-.055-.283.12-.224.197-.259.251-.27.219-.142.36-.177h.317l.284.153.23.283.065.295Zm8.715 4.116-.016.184-.215.048-.144-.016-.168-.152.152-.127.232-.016.16.08Zm.139-.48-.224.282h-.307l-.365-.124-.342-.157-.353-.247-.07-.213-.437-.09-.247-.09-.483.067h-.413l-.424.023-.589.202-.424.236-.684.595-.141.325-.224.46.06.529.188.437.188.27.613.415.353.281.413.247.318.28.377.27.778.438.388.326.283.303.271.18.07.258.39.595.165.37.094.405.177.438.141.415.024.596-.095.46-.27.539-.142.427-.295.303-.141.28-.342.337-.306.236-.507.18-.683.112-.471.101-.542-.1-.377-.023-.342-.068-.26-.134h-.176l-.094-.113.047-.258.094-.348h.177v.135l.047.09.165.1.342.135.765.045.248-.067.377.022.507-.134.459-.191.566-.37.094-.27.26-.21.117-.34.177-.293.023-.348.118-.505-.094-.326-.094-.438-.248-.336-.118-.416-.212-.393-.153-.37-.283-.158-.224-.235-.33-.225-.294-.28-.53-.225-.318-.303-.354-.068-.342-.28-.436-.293-.235-.19-.436-.113-.413-.348-.365-.404-.212-.416-.224-.437v-.876l.2-.483.236-.46.271-.394.306-.314.295-.258.365-.281.436-.202.377-.135.554-.022.53-.045.53-.124.46-.224.483-.135.224-.168.46.067.259.236.153.415.188.225.236.236.153.359.047.348.048.438Zm17.706 9.817-.023.322-.178.264-.094.207-.214.173h-.366l-.32.092-.355.115h-.414l-.486-.046-.556.092h-.367l-.414.115-.332.195-.461.138-.438.264-.367.23h-.675l-.414-.069h-.485l-.39-.023-.332-.069-.367-.126-.414.057-.273-.08-.118-.184.024-.265v-.298l.023-.265.13-.253-.059-.264.06-.23.07-.287v-.357l.119-.437.024-.448-.024-.38.07-.356.048-.402.095-.345.024-.425-.024-.242v-.897l.024-.39v-.518l.059-.38.047-.493.024-.31-.024-.323-.047-.333.047-.31v-.403l.024-.368.047-.356-.047-.219.047-.23.047-.31-.023-.23.095-.287-.119-.253-.047-.334v-.379l-.024-.345-.047-.356v-.31l.118-.208-.177-.195-.048-.23.154-.207v-.264l.095-.288v-.345l.023-.31-.023-.207.213-.264.248-.207.237-.092.296-.035.308-.092.296.023.272.173.26.138.32.207.213.31.095.333.047.253-.095.31-.047.23-.284.242-.178.276-.07.448-.119.31-.071.311-.071.322-.107.333v.38l-.118.368-.095.667v.344l-.118.31-.071.242-.13.207-.024.31-.07.368-.096.782v.38l-.118.321-.047.426-.107.402v.38l-.07.275-.048.242v.356l-.095.3-.024.31-.07.356-.119.39.024.288-.024.472-.083.356-.07.253v.172l-.048.253-.024.31.071.139.225.046.26-.115.415-.046.461-.046h.26l.344.138h.39l.261-.092.32-.023.438-.15.236-.092.367.023.462.07.438-.07.509-.115.39-.184.308-.15.071-.206.343-.184.272-.127.332.07.248.172.142.253.25.241.046.253.071.31v.311Zm10.897 2.149-.094.113-.188.068-.07-.113-.129-.17-.164-.32-.235-.306-.34-.58-.246-.558-.094-.398-.164-.216-.293-.807-.235-.285-.188-.42-.27-.421-.21-.182-.505-.535-.106-.307-.398-.273-.505-.09-.54.067-.55.091-.4.16-.433.375-.41.205-.095.193-.316.227-.669.376-.129.136-.094.512v.33l-.164.182v.398l-.07.42.07.683-.07.466-.141.49-.223.386-.258.307-.434.376-.41.068-.388.045-.117-.09h-.223l-.164-.194-.117-.091v-.228l-.118-.17v-.466l.118-.296-.024-.262.07-.159.141-.068v-.216l.223-.114.094-.205.14-.284.2-.091.188-.42.07-.467.118-.068-.047-.307.093-.467v-.295l-.21-.444-.141-.398-.047-.444-.024-.307.07-.09-.046-.16v-.091l.352-.42v-.137l.199-.216.258-.398.317-.444.07-.318.024-.24-.024-.181.117-.58.094-.558.2-.705.047-.398.093-.182-.023-.603-.047-.534.047-.512.188-.42.175-.33.212-.16.07-.307.152-.205.07-.193-.07-.136.047-.307-.176-.364.047-.376-.14-.17.07-.296h.152l.259-.193.14-.023.106-.182.375-.046.317.137.27.398.117.068.188.353.222.42.094.399.211.455.27.352.024.194.187.204.118.24.222.295-.023.284.211.42.024.183.129.227.117.398.188.33.07.558.106.398.14.557v.205l.118.307.164.534.152.49.047.397.117.285.317.204.376.114.457-.023h.434l.434.091.07.125.094.114-.094.068-.07.114-.188.194-.246.022-.094.114-.363.068-.411.182-.164.148v.273l.07.33.153.33.187.318.165.466.117.285.152.443.164.398.247.49.164.409.094.637.117.068.153.33.164.318v.194l.117.113.094.308Zm-4.086-7.201-.115-.254-.255-.426-.051-.403-.128-.185-.089-.242-.153-.23.026-.61-.332-.404.102-.173-.128-.276-.165-.83-.204-.38-.026-.3-.293-.334-.102-.184-.255-.495-.523.472.05.3-.19.264v.277l-.052.15-.102.472-.05.415v.127l-.128.161v.334l-.051.657v.31l-.14.277.089.288-.14.358.216.276.6.242.625.207.523.265.293.185.51.092.344-.07.102-.068.192-.265Zm-1.187.53-.096.025-.08-.056.017-.064h.08l.047-.032.032.048v.08Zm16.85-8.702-.023.34v.386l-.14.258.047.199-.093.328-.269.34-.21.315-.105.69v.434l-.116.597.023.316-.117.527-.023.48-.222.433-.093.55-.047.55-.711 1.51-.245.188-.07.363-.21.34-.105.55-.117.327v.457l-.28.75-.198.35-.07.562-.047.445-.117.433.024.363-.07.387.046.21-.198.246-.21.48h-.187l-.245-.047-.093-.34-.455-.245-.163-.421-.105-.363-.257-.433v-.293l-.245-.281.222-.433-.245-.433-.07-.644-.35-.773-.129-.667-.116-.527-.164-.843-.093-.28-.128-.41-.187-.504-.338-1.007-.385-.573-.257.48-.093.187v1.346l-.094.644.07.597-.128.702-.117.738-.186.363-.094.597-.105.714-.046 1.37-.164.34.094.304-.257.34-.432.186-.548.024-.432-.258-.116-.433-.175-.527-.117-.48v-.386l.315-.48.21-.21.187-.247.221-.503.024-.644.233-.55.082-.503.21-.387-.094-1.124-.116-.363-.082-.643.128-.644.164-.433.14-.55.361-.34.164-1.417.338-.433.093-.48.339-.421.116-.129.164-.117.058-.293.14-.093h.21l.152.175.07.351.14.574.116.679.175 1.58.094.715.163.433.07.456.047.433.175.644.07.726.303.48.175.714.047.68.163.573.175.667.117.433.093.234h.187l.151-.234.28-.246.094-.503.175-.117-.047-.234.163-.574-.07-.386.07-.48.21-.222.222-.352.187-.433.245-.433.233-.27v-.444l.222-.433.116-.293.164-.527.093-.433-.047-.69-.163-.527-.187-.55-.198-.41v-.48l-.047-.62.245-.27v-.34l.187-.234.117-.749.175-.445.186.094.409-.152.233-.281.432-.176.291-.094.257.2.152.35.14-.023.07.433Zm8.854 6.17-.12.493-.048.655-.157.632.072.47.049.69-.145.46v.643l-.288.54-.229.54-.89 1.39-.408.321-.542.356-.54.195-1.143.138-.637-.069-.517.07-.325.022-.24-.092-.12-.092-.133-.172.132-.321.289-.334.373-.114.216.068.445-.333.42-.16.446-.046.372-.288.421-.16.385-.219.421-.47.349-.54.336-.449.18-.448-.071-.517.096-.47-.096-.391-.085-.402.157-.471-.048-.356.12-.471-.048-.563-.12-.54-.18-.735-.217-.678-.205-.31-.048-.39-.264-.449-.373-.333-.42-.207-.903.046-.553.161-.264.333-.097.517-.18.471-.144.61-.12.539-.097.632-.108.379-.072.31.072.448.108.414-.252.218.12.253-.096.333v.448l-.145.356-.024.517v.379l-.12.367-.108.288v.356l-.072.425-.169.586v.298l-.024.758-.024.357.024.344.097.448.168.218-.024.276-.144.31-.217.046-.228-.046-.169-.092-.096-.126-.12-.253-.108-.609-.024-.47.024-.494-.024-.494v-.357l.096-.631.06-.644.12-.563.048-.448.096-.47v-.632l.049-.724.096-.643-.096-.345-.049-.551.073-.701.18-.563v-.448l.168-.827v-.448l-.096-.345.024-.31-.204-.23-.096-.31-.049-.264.073-.448.228-.207.541-.183.517-.242.565-.16.542-.024h.372l.926.184.421.046.325.173.072.16.373.07.36.31.325.252.253.494.216.38.144.447.18.333.169.471.216.563.085.448.048.54.12.448v.448Z" transform="translate(0 8)"/></g></svg>