<svg xmlns="http://www.w3.org/2000/svg" width="158" height="48"><defs><linearGradient id="a" x1="39.782%" x2="67.197%" y1="34.057%" y2="79.773%"><stop offset="0%" stop-color="#FBBA00"/><stop offset="100%" stop-color="#EA5B0C"/></linearGradient><linearGradient id="b" x1="15.237%" x2="83.99%" y1="18.367%" y2="97.904%"><stop offset="0%" stop-color="#52AE32"/><stop offset="100%" stop-color="#00A4AF"/></linearGradient></defs><g fill="none" fill-rule="nonzero"><g fill="#020203"><path d="M78.762 13.14h-5.029v2.276h3.705v8.84h2.753v-8.893h3.705v-2.276h-1.852c-1.112.053-2.17.053-3.282.053ZM90.725 22.192h-2.806V19.44h5.346v-1.642h-5.452v-2.593h5.453V13.14h-8.099v11.116h8.204v-2.064h-2.646ZM103.746 22.086a11.8 11.8 0 0 1-1.746-.159c-.689-.106-1.27-.264-1.8-.53a4.053 4.053 0 0 1-1.588-1.11 2.498 2.498 0 0 1-.53-1.589c0-.582.212-1.111.583-1.588.37-.476.9-.847 1.588-1.111.476-.212 1.058-.37 1.747-.477.688-.106 1.217-.159 1.693-.159h.424c-.053-.476-.159-.9-.212-1.323-.053-.423-.106-.74-.106-1.006h-.423c-1.27 0-2.435.16-3.547.477-1.111.317-2.011.794-2.752 1.429a4.902 4.902 0 0 0-1.324 1.64c-.317.636-.476 1.324-.476 2.118 0 .847.159 1.588.476 2.223a5.253 5.253 0 0 0 1.377 1.694c.74.636 1.64 1.059 2.752 1.377 1.059.317 2.33.476 3.706.476h.371c.052-.476.105-.9.158-1.27.053-.37.106-.741.159-1.06h-.265c-.106-.052-.212-.052-.265-.052ZM112.004 18.592c.159-.158.635-.74 1.43-1.746.793-1.006 1.587-2.012 2.381-2.912l-2.382-1.005c-.9 1.27-1.852 2.434-2.7 3.599-.9 1.112-1.482 1.906-1.8 2.276.107.106.636.688 1.642 1.8 1.006 1.111 2.064 2.382 3.229 3.811l2.435-1.006c-1.112-1.27-2.118-2.382-2.912-3.282-.794-.952-1.27-1.429-1.323-1.535ZM108.828 13.087h-2.753v11.116h2.753V13.087ZM123.173 22.192h-2.806V19.44h5.346v-1.642h-5.451v-2.593h5.505V13.14h-8.099v11.116h8.204v-2.064h-2.699ZM136.512 9.753l-1.694-.53c-.211.318-.635.688-1.111.688-.477 0-.953-.37-1.112-.688l-1.694.53c.159.952 1.27 2.064 2.859 2.064 1.482 0 2.593-1.112 2.752-2.064ZM139 18.91V13.193l-2.17-.159c-.265.265-.953 1.165-2.17 2.647-1.218 1.482-2.435 2.964-3.759 4.5h-.053V13.192h-2.593V24.31l2.011.159c1.376-1.853 2.7-3.494 3.917-4.976 1.218-1.482 1.906-2.329 2.17-2.646h.053v7.463h2.541v-1.852c.053-1.006.053-2.17.053-3.547Z"/></g><g fill="#000"><path d="M82.256 30.767h-4.87v7.57h1.27v-6.512h3.6zM86.808 30.608c-.953 0-1.8.37-2.488 1.112-.688.741-1.059 1.747-1.059 2.911 0 1.165.318 2.065 1.006 2.806.688.688 1.535 1.058 2.54 1.058.636 0 1.165-.053 1.589-.158.423-.106.794-.265 1.111-.53l-.53-1.006a3.035 3.035 0 0 1-1.958.689c-.529 0-.952-.106-1.323-.37-.37-.266-.635-.53-.847-.954-.212-.423-.265-.9-.265-1.482v-.053h5.558c.053-.317.106-.582.106-.794 0-1.006-.317-1.8-.952-2.382-.583-.53-1.43-.847-2.488-.847Zm2.17 3.123h-4.34v-.053c.052-.529.264-1.058.688-1.429.423-.37.952-.582 1.535-.582.635 0 1.164.212 1.535.582.37.37.582.9.582 1.482ZM94.8 30.608c-1.005 0-1.852.37-2.487 1.059-.635.741-.953 1.694-.953 2.858 0 1.218.318 2.224.9 2.912.582.688 1.429 1.058 2.54 1.058 1.06 0 1.853-.37 2.488-1.058.636-.688.953-1.694.953-2.912 0-1.217-.317-2.17-.9-2.858-.635-.688-1.482-1.059-2.54-1.059Zm1.536 6.088c-.37.529-.9.847-1.535.847-1.43 0-2.118-1.006-2.118-2.965 0-.847.212-1.588.583-2.117.37-.53.9-.794 1.588-.794 1.376 0 2.117 1.006 2.117 2.911-.106.847-.318 1.535-.635 2.118ZM104.488 38.336h1.27v-7.569h-5.981v7.57h1.217v-6.512h3.494zM113.169 36.484V33.73c0-1.111-.265-1.958-.742-2.435-.529-.476-1.323-.74-2.382-.74-.423 0-.9.052-1.323.264-.423.159-.794.318-1.006.53l.53 1.058c.476-.423 1.111-.688 1.958-.688 1.165 0 1.747.635 1.747 1.905v.053h-.053a3.559 3.559 0 0 0-.953-.158c-1.058 0-1.905.264-2.593.794-.689.529-1.006 1.164-1.006 1.958 0 .635.212 1.165.635 1.588a2.12 2.12 0 0 0 1.535.635c1.112 0 1.906-.317 2.435-1.005l.053-.053.053.106c.106.317.265.529.53.74.264.16.634.265 1.217.265v-.582c-.424-.318-.635-.794-.635-1.482Zm-1.218.053c-.582.688-1.217 1.006-1.906 1.006-1.005 0-1.482-.424-1.482-1.27 0-.477.212-.954.688-1.324.424-.37 1.006-.53 1.747-.53.106 0 .424.053.953.16h.053l-.053 1.958ZM118.568 30.608c-.688 0-1.324.265-1.853.794l-.106.106v-.688h-1.27v10.64h1.27v-3.547l.106.159c.106.159.318.265.688.37.37.106.688.16 1.006.16 1.112 0 2.011-.371 2.594-1.06.582-.74.9-1.693.9-2.858 0-1.27-.318-2.276-.9-2.964-.53-.794-1.377-1.112-2.435-1.112Zm-.53 6.882c-.264 0-.529-.053-.794-.16-.264-.105-.476-.264-.582-.423v-4.552a3.3 3.3 0 0 1 .635-.476c.318-.16.53-.212.741-.212.9 0 1.535.212 1.959.688.423.476.635 1.165.635 2.17 0 1.959-.9 2.965-2.594 2.965ZM129.314 30.767h-1.482l-3.018 3.652v-3.652h-1.27v7.57h1.27v-2.595l1.27-1.27.054.053 2.382 3.811h1.323l-2.964-4.71zM133.6 33.52c-.476 0-.9 0-1.323.105h-.052v-2.858h-1.218v7.623h2.594c.688 0 1.217-.106 1.64-.318.424-.212.795-.476 1.006-.9.212-.37.318-.794.318-1.217 0-.794-.265-1.43-.741-1.853-.53-.37-1.27-.582-2.223-.582Zm1.271 3.493c-.317.265-.74.37-1.27.37-.582 0-1.006 0-1.324-.052h-.052v-2.806h.052c.53-.053.953-.106 1.27-.106.53 0 .954.106 1.324.371.318.265.53.635.53 1.112-.053.529-.212.847-.53 1.111ZM137.782 30.767H139v7.622h-1.217z"/></g><path fill="url(#a)" d="m16.515 2.223 2.753 6.511-4.076 5.399 1.323 3.811-7.781 5.558 1.482 1.535 2.541-.899 2.488 1.005 1.694-.635-.212 4.923-2.753 3.282-6.669 1.641L0 32.342l3.758-13.498 5.082-3.652 2.594-9.316z" transform="translate(19 7)"/><path fill="url(#b)" d="m21.332 17.944 1.165-3.864 5.187-4.076L28.69 0h5.611l11.91 14.98 4.817 17.362-10.957 2.012-10.905-2.964-2.593-5.982-3.494-4.817 3.388-.847.317-1.8z" transform="translate(19 7)"/></g></svg>