<svg xmlns="http://www.w3.org/2000/svg" width="158" height="48"><g fill="none" fill-rule="evenodd"><path fill="#BDBEA9" d="M75.964 4c.86.505 1.717 1.015 2.58 1.514.365.21.712.211 1.084-.05.392-.275.792-.145 1.173.108 1.328.885 2.648 1.784 4 2.629 1.077.672 2.191 1.284 3.3 1.903.48.27.996.474 1.48.74.168.093.285.283.427.43-.165.127-.322.267-.498.378-.164.105-.378.147-.518.275-.364.33-.662.492-1.24.351-.434-.106-1.007.292-1.493.52-.269.127-.485.367-.753.515.699-1.406.699-1.406 1.464-1.88l-.205-.509c-.25-.03-.464-.05-.675-.084-.738-.119-1.475-.25-2.215-.36-.276-.042-.55.024-.657-.386-.075-.29-.932-.523-1.322-.433a2.845 2.845 0 0 0-.34.099c-.346.126-.69.258-1.078.404.307.441.565.826 1.183.815.744-.013 1.41.582 1.684 1.399-.422.07-.775-.005-1.107-.301-.178-.158-.443-.312-.664-.305-.536.014-.95-.211-1.324-.537-.256-.222-.487-.225-.785-.095-.41.178-.842.304-1.33.475l1.035 1.767-.09.118c-.235-.182-.492-.344-.7-.553a85.633 85.633 0 0 1-1.79-1.851c-.536-.567-1.565-.874-2.232-.519-.393.21-.713.607-.99.978-.303.41-.605.677-1.138.817-.458.12-.825.591-1.233.908-.21.164-.42.328-.675.436.428-.658.552-1.495 1.31-1.923.207-.118.26-.516.385-.786l-.083-.12-4.022 2.284.3.414c-.403 0-.86.142-1.064-.027-.5-.415-.861-.133-1.224.101-.339.22-.593.274-.963.042-.15-.094-.513.028-.706.16-.467.32-.885.709-1.333 1.056-.272.211-.523.092-.711-.132-.34-.404-.735-.397-1.192-.252-.716.226-1.446.408-2.163.633-.166.052-.298.21-.452.31-.209.135-.409.322-.64.38-.78.195-1.574.344-2.32.501.05-.036.16-.133.285-.2.875-.469 1.757-.925 2.63-1.4.233-.126.43-.32.662-.448.685-.376 1.399-.702 2.066-1.107 1.189-.722 2.349-1.491 3.527-2.231.765-.48 1.541-.942 2.313-1.413 1.279-.78 2.574-1.534 3.83-2.348 1.06-.687 2.075-1.445 3.11-2.17.496-.348.993-.693 1.49-1.04h.607Z"/><path fill="#BDBEA9" d="m54.114 18.92 1.8-.885c.03-.014.065-.017.095-.031 1.536-.705 3.066-1.423 4.612-2.107.446-.197.914-.178 1.321.181.68.6 1.247.569 1.884-.086.082-.085.145-.188.23-.27.383-.365.763-.733 1.37-.56.104.03.254.015.345-.041.685-.428 1.268-.12 1.934.135 1.2.458 2.457.76 3.689 1.131.257.078.52.151.76.268.82.4 1.668.32 2.507.13.354-.079.652-.172.886.203.038.06.133.092.208.119.834.3 1.668.6 2.506.888.123.043.266.036.4.036.62.001 1.243-.03 1.863.003.43.022.854.176 1.283.186 1.02.024 2.042-.014 3.063-.005.43.003.858.057 1.286.105.08.009.15.102.224.156-.068.084-.129.233-.204.241-.282.028-.569.005-.854.01-.845.011-1.69.033-2.535.039-.665.004-1.33-.005-1.995-.016-1.07-.017-2.14-.039-3.21-.065-.232-.006-.464-.045-.696-.057a24.235 24.235 0 0 0-1.039-.038c-.218-.002-.443.058-.652.021-.472-.083-.9-.178-1.392.068-.282.142-.717-.06-1.083-.055-1.52.018-3.041.038-4.56.092-1.189.042-2.375.169-3.564.197-1.108.026-2.218-.045-3.327-.043-1.287 0-2.573.035-3.86.053-.219.003-.438-.002-.656-.003h-2.639M79.945 16.905c.67-.226 1.343-.449 2.012-.682.17-.059.351-.123.488-.234.246-.202.487-.233.813-.248.834-.038 1.51-.509 2.106-1.087.894-.865 1.874-1.515 3.201-1.256.587.114.99-.29 1.382-.59.56-.429 1.146-.725 1.842-.799.31-.033.523-.134.607-.492.118-.503.52-.607.947-.33.914.588 1.841 1.153 2.761 1.73.143.09.337.166.4.3.298.632.846.836 1.46.934.693.11 1.123.656 1.667 1.01.981.637 1.896 1.38 3.037 1.74.357.112.683.325 1.023.491l-.057.15c-.227-.089-.452-.181-.68-.265-.441-.163-.817-.49-1.354-.42-.232.03-.508-.155-.74-.286a79.151 79.151 0 0 1-1.941-1.146c-.37-.223-.721-.48-1.1-.684-.16-.086-.37-.078-.557-.113l-.071.12c.132.16.241.351.401.475.488.377.975.763 1.502 1.078.306.183.699.213 1.031.36.127.056.194.247.289.377-.148.02-.302.08-.442.056-1.309-.218-2.3-1.164-3.521-1.59-.296-.102-.551-.327-.847-.427-.128-.042-.397.05-.45.157-.056.111.02.372.126.47.316.29.683.52 1.013.796.133.111.22.277.33.419l-.08.126c-.199-.08-.4-.156-.597-.239-.227-.095-.464-.173-.672-.3-.247-.151-.515-.31-.688-.532-.419-.543-1.146-.552-1.633-.093-.325.306-.584.77-1.188.736-.225-.013-.468.326-.705.502-.163.122-.33.238-.495.357l-.152-.14c.11-.233.278-.457.317-.701.036-.231-.062-.484-.115-.806-1.15.39-2.1 1.135-3.25 1.297l-.082-.12c.286-.316.573-.632.9-.99-.056-.032-.167-.141-.22-.118-.656.29-1.42.47-1.923.936-.606.56-1.184.489-1.85.396a8.852 8.852 0 0 0-1.135-.07c-1.029-.009-2.058-.003-3.087-.003l-.023-.252M52.854 17.696l2.044-1.08.093.17c-.337.187-.668.388-1.014.557-.343.17-.702.307-1.054.458l-.07-.105M87.148 18.389c.327-.034.704-.206.883.465-.377-.103-.661-.18-.945-.259l.062-.206"/><path fill="#B45834" fill-rule="nonzero" d="M98.816 41.288c-9.98.195-7.46.978-7.828 1.1.474.059-9.295.979 4.893 1.346 12.598-.245 20.303-.245 33.269.244 7.333.277 6.971-2.201.733-2.201-.644 0 1.224-.245-2.201-.49-7.001-.247-19.93-.175-28.866 0Z"/><path fill="#496D75" fill-rule="nonzero" d="M26.294 37.32V26.113H24v-3.296h8.543v3.296h-2.32V37.32zM39.228 32.837h-.66v4.483H34.64V22.817h4.799c.615 0 1.204.088 1.766.264.58.175 1.09.44 1.53.79.457.352.826.783 1.107 1.293.281.51.448 1.098.501 1.766v1.793c-.053.668-.22 1.257-.5 1.767-.282.51-.642.94-1.082 1.292l2.162 5.538h-3.929l-1.766-4.483Zm1.186-5.195c0-.334-.07-.624-.21-.87-.141-.263-.396-.395-.765-.395h-.87v2.9h.87c.369 0 .624-.123.764-.369.14-.264.211-.563.211-.896v-.37ZM50.692 26.113v2.189h3.217v3.217h-3.217v2.504h3.929v3.297h-7.858V22.817h7.858v3.296zM60.804 30.965v6.355h-3.929V22.817h3.929v5.537l2.901-5.537h3.928l-3.586 6.829 3.982 7.674H64.1zM73.55 30.965v6.355h-3.928V22.817h3.928v5.537l2.901-5.537h3.929l-3.586 6.829 3.981 7.674h-3.928zM82.368 22.817h3.929V37.32h-3.929zM97.246 26.35c-.317-.035-.624-.07-.923-.105a10.235 10.235 0 0 0-.765-.08 10.024 10.024 0 0 0-.633-.026 8.01 8.01 0 0 0-.606.027c-.229 0-.44.035-.633.105-.193.07-.36.176-.5.317-.142.14-.212.342-.212.606 0 .14.114.325.343.554.246.228.545.5.896.817.352.3.738.633 1.16 1.002.422.352.809.73 1.16 1.134.352.387.642.791.871 1.213.246.422.37.835.37 1.24 0 1.423-.467 2.522-1.399 3.295-.913.756-2.223 1.134-3.928 1.134-.405 0-.818-.035-1.24-.105a8.893 8.893 0 0 1-1.16-.264 4.607 4.607 0 0 1-1.134-.58v-2.98c.317.123.642.229.976.317.299.088.633.167 1.002.237.369.053.738.08 1.107.08.457 0 .818-.071 1.081-.212.264-.14.396-.422.396-.844 0-.263-.123-.518-.37-.764a6.553 6.553 0 0 0-.87-.765l-1.16-.87a7.488 7.488 0 0 1-1.16-1.081 6.152 6.152 0 0 1-.896-1.371c-.229-.51-.343-1.108-.343-1.793 0-.352.079-.756.237-1.213.176-.475.448-.914.818-1.319.369-.422.843-.773 1.423-1.055.58-.298 1.284-.448 2.11-.448.21 0 .483.009.817.027a12.006 12.006 0 0 1 2.162.211c.37.052.703.131 1.003.237v3.322ZM101.64 37.32V26.113h-2.294v-3.296h8.543v3.296h-2.32V37.32zM119.617 37.32h-4.114l-.554-2.48h-2.663l-.343 2.48h-4.06l3.533-14.503h4.614l3.587 14.503Zm-5.195-5.67-.739-5.141-.817 5.141h1.556ZM128.19 22.817h3.902V37.32h-3.902l-3.033-7.041v7.041h-3.954V22.817h3.954l3.033 8.095z"/></g></svg>